<?xml version="1.0" encoding="utf-8"?>
<!-- Generator: Adobe Illustrator 18.1.1, SVG Export Plug-In . SVG Version: 6.00 Build 0)  -->
<!DOCTYPE svg PUBLIC "-//W3C//DTD SVG 1.1//EN" "http://www.w3.org/Graphics/SVG/1.1/DTD/svg11.dtd">
<svg version="1.1" id="Layer_1" xmlns="http://www.w3.org/2000/svg" xmlns:xlink="http://www.w3.org/1999/xlink" x="0px" y="0px"
	 viewBox="0 0 64 64" enable-background="new 0 0 64 64" xml:space="preserve">
<g>
	<path fill-rule="evenodd" clip-rule="evenodd" d="M32,0.8c-17.7,0-32,14.3-32,32c0,14.1,9.2,26.1,21.9,30.4
		c1.6,0.3,2.2-0.7,2.2-1.5c0-0.8,0-3.3,0-6c-8.9,1.9-10.8-3.8-10.8-3.8c-1.5-3.7-3.6-4.7-3.6-4.7c-2.9-2,0.2-1.9,0.2-1.9
		c3.2,0.2,4.9,3.3,4.9,3.3c2.9,4.9,7.5,3.5,9.3,2.7c0.3-2.1,1.1-3.5,2-4.3c-7.1-0.8-14.6-3.6-14.6-15.8c0-3.5,1.2-6.3,3.3-8.6
		c-0.3-0.8-1.4-4.1,0.3-8.5c0,0,2.7-0.9,8.8,3.3c2.6-0.7,5.3-1.1,8-1.1c2.7,0,5.5,0.4,8,1.1c6.1-4.1,8.8-3.3,8.8-3.3
		c1.7,4.4,0.6,7.7,0.3,8.5c2.1,2.2,3.3,5.1,3.3,8.6c0,12.3-7.5,15-14.6,15.8c1.1,1,2.2,2.9,2.2,5.9c0,4.3,0,7.7,0,8.8
		c0,0.9,0.6,1.8,2.2,1.5C54.8,58.9,64,46.9,64,32.8C64,15.1,49.7,0.8,32,0.8z"/>
	<path d="M12.1,46.7c-0.1,0.2-0.3,0.2-0.5,0.1c-0.2-0.1-0.4-0.3-0.3-0.5c0.1-0.2,0.3-0.2,0.6-0.1C12.1,46.4,12.2,46.6,12.1,46.7
		L12.1,46.7z M11.7,46.4"/>
	<path d="M13.4,48.2c-0.2,0.1-0.5,0.1-0.7-0.1c-0.2-0.2-0.2-0.5-0.1-0.7c0.2-0.1,0.4-0.1,0.7,0.1C13.5,47.7,13.6,48,13.4,48.2
		L13.4,48.2z M13.1,47.9"/>
	<path d="M14.7,50c-0.2,0.1-0.5,0-0.7-0.3c-0.2-0.3-0.2-0.6,0-0.8c0.2-0.1,0.5,0,0.7,0.3C14.9,49.5,14.9,49.9,14.7,50L14.7,50z
		 M14.7,50"/>
	<path d="M16.4,51.8c-0.2,0.2-0.5,0.1-0.8-0.1c-0.3-0.3-0.4-0.6-0.2-0.8c0.2-0.2,0.6-0.1,0.8,0.1C16.5,51.2,16.6,51.6,16.4,51.8
		L16.4,51.8z M16.4,51.8"/>
	<path d="M18.8,52.8c-0.1,0.3-0.4,0.4-0.8,0.3c-0.4-0.1-0.6-0.4-0.5-0.7c0.1-0.3,0.4-0.4,0.8-0.3C18.6,52.3,18.9,52.6,18.8,52.8
		L18.8,52.8z M18.8,52.8"/>
	<path d="M21.4,53c0,0.3-0.3,0.5-0.7,0.5c-0.4,0-0.7-0.2-0.7-0.5c0-0.3,0.3-0.5,0.7-0.5C21.1,52.6,21.4,52.8,21.4,53L21.4,53z
		 M21.4,53"/>
	<path d="M23.8,52.6c0,0.3-0.2,0.5-0.6,0.6c-0.4,0.1-0.7-0.1-0.8-0.3c0-0.3,0.2-0.5,0.6-0.6C23.5,52.2,23.8,52.4,23.8,52.6
		L23.8,52.6z M23.8,52.6"/>
</g>
</svg>
