<?xml version="1.0" encoding="utf-8"?>
<!-- Generator: Adobe Illustrator 18.1.1, SVG Export Plug-In . SVG Version: 6.00 Build 0)  -->
<!DOCTYPE svg PUBLIC "-//W3C//DTD SVG 1.1//EN" "http://www.w3.org/Graphics/SVG/1.1/DTD/svg11.dtd">
<svg version="1.1" id="Layer_1" xmlns="http://www.w3.org/2000/svg" xmlns:xlink="http://www.w3.org/1999/xlink" x="0px" y="0px"
	 viewBox="0 0 64 64" enable-background="new 0 0 64 64" xml:space="preserve">
<path fill-rule="evenodd" clip-rule="evenodd" d="M1.1,61.2h13.1V21.9H1.1V61.2z M47.7,20.6c-5.7,0-9.1,2.1-12.7,6.7v-5.4H22v39.3
	h13.1V39.9c0-4.5,2.3-8.9,7.5-8.9c5.2,0,8.3,4.4,8.3,8.8v21.4H64V38.9C64,23.4,53.5,20.6,47.7,20.6z M7.7,2.8C3.4,2.8,0,5.9,0,9.7
	c0,3.8,3.4,6.9,7.7,6.9c4.3,0,7.7-3.1,7.7-6.9C15.4,5.9,12,2.8,7.7,2.8z"/>
</svg>
